<?xml version="1.0" encoding="utf-8"?>
<!-- Generator: Adobe Illustrator 25.0.0, SVG Export Plug-In . SVG Version: 6.00 Build 0)  -->
<svg version="1.1" id="レイヤー_1" xmlns="http://www.w3.org/2000/svg" xmlns:xlink="http://www.w3.org/1999/xlink" x="0px"
	 y="0px" viewBox="0 0 40 40" style="enable-background:new 0 0 40 40;" xml:space="preserve">
<style type="text/css">
	.st0{fill:#C090F4;}
</style>
<path class="st0" d="M14.8,29.6c-2.3,0-4.2-1.9-4.2-4.2v-13H4.9c-2.7,0-4.8,2.1-4.8,4.8v18.1c0,2.6,2.1,4.7,4.8,4.7h18.1
	c2.7,0,4.8-2.1,4.8-4.8v-5.6H14.8z"/>
<path class="st0" d="M37.7,0.1h-23c-1.3,0-2.4,1.1-2.4,2.4v8.2h12.8c2.3,0,4.2,1.9,4.2,4.2v12.9h8.3c1.3,0,2.4-1.1,2.4-2.4V2.5
	C40,1.2,39,0.1,37.7,0.1z"/>
<path class="st0" d="M22.9,12.3H12.3v13c0,1.3,1.1,2.4,2.4,2.4h12.9V17.1C27.7,14.5,25.5,12.3,22.9,12.3z M25.2,25.2h-8.9
	c-0.9,0-1.6-0.8-1.6-1.6v-8.9H22c1.8,0,3.3,1.5,3.2,3.3V25.2z"/>
</svg>
