<svg xmlns="http://www.w3.org/2000/svg" viewBox="0 0 40 40"><path fill="#dff0fe" d="M2.5 2.5H29.5V25.5H2.5z"/><path fill="#4788c7" d="M29,3v22H3V3H29 M30,2H2v24h28V2L30,2z"/><path fill="#98ccfd" d="M3 3H29V7H3zM18 10H26V22H18zM6 10H14V22H6z"/><path fill="#fff" d="M10.5 14.5H37.5V37.5H10.5z"/><path fill="#4788c7" d="M37,15v22H11V15H37 M38,14H10v24h28V14L38,14z"/><path fill="#b6dcfe" d="M11 15H37V19H11z"/><g><path fill="#b6dcfe" d="M26 22H34V34H26z"/></g><g><path fill="#b6dcfe" d="M14 22H22V34H14z"/></g></svg>